<svg width="32" height="32" viewBox="0 0 32 32" fill="none" xmlns="http://www.w3.org/2000/svg">
<path fill-rule="evenodd" clip-rule="evenodd" d="M15.7141 23.5717C20.0534 23.5717 23.5712 20.0539 23.5712 15.7146C23.5712 11.3752 20.0534 7.85742 15.7141 7.85742C11.3747 7.85742 7.85693 11.3752 7.85693 15.7146C7.85693 20.0539 11.3747 23.5717 15.7141 23.5717ZM15.7141 20.9527C18.6069 20.9527 20.9522 18.6074 20.9522 15.7146C20.9522 12.8216 18.6069 10.4765 15.7141 10.4765C12.8212 10.4765 10.476 12.8216 10.476 15.7146C10.476 18.6074 12.8212 20.9527 15.7141 20.9527Z" fill="url(#paint0_linear_62_15)"/>
<path d="M23.5712 6.54688C22.848 6.54688 22.2617 7.13318 22.2617 7.8564C22.2617 8.57962 22.848 9.16592 23.5712 9.16592C24.2945 9.16592 24.8808 8.57962 24.8808 7.8564C24.8808 7.13318 24.2945 6.54688 23.5712 6.54688Z" fill="url(#paint1_linear_62_15)"/>
<path fill-rule="evenodd" clip-rule="evenodd" d="M2.16595 5.59867C1.30957 7.27941 1.30957 9.47962 1.30957 13.88V17.5467C1.30957 21.9471 1.30957 24.1473 2.16595 25.828C2.91924 27.3064 4.12122 28.5085 5.59965 29.2617C7.28038 30.1181 9.48059 30.1181 13.881 30.1181H17.5477C21.9481 30.1181 24.1483 30.1181 25.829 29.2617C27.3074 28.5085 28.5094 27.3064 29.2627 25.828C30.1191 24.1473 30.1191 21.9471 30.1191 17.5467V13.88C30.1191 9.47962 30.1191 7.27941 29.2627 5.59867C28.5094 4.12025 27.3074 2.91826 25.829 2.16497C24.1483 1.30859 21.9481 1.30859 17.5477 1.30859H13.881C9.48059 1.30859 7.28038 1.30859 5.59965 2.16497C4.12122 2.91826 2.91924 4.12025 2.16595 5.59867ZM17.5477 3.92764H13.881C11.6376 3.92764 10.1125 3.92968 8.93372 4.02599C7.78548 4.1198 7.19829 4.28984 6.78867 4.49855C5.80306 5.00076 5.00173 5.80208 4.49953 6.78769C4.29082 7.19731 4.12078 7.7845 4.02696 8.93275C3.93066 10.1115 3.92862 11.6366 3.92862 13.88V17.5467C3.92862 19.7902 3.93066 21.3151 4.02696 22.4939C4.12078 23.6423 4.29082 24.2295 4.49953 24.6391C5.00173 25.6246 5.80306 26.4259 6.78867 26.9281C7.19829 27.1369 7.78548 27.307 8.93372 27.4007C10.1125 27.497 11.6376 27.4991 13.881 27.4991H17.5477C19.7911 27.4991 21.3161 27.497 22.4949 27.4007C23.6432 27.307 24.2304 27.1369 24.64 26.9281C25.6256 26.4259 26.4269 25.6246 26.9291 24.6391C27.1378 24.2295 27.3079 23.6423 27.4017 22.4939C27.498 21.3151 27.5 19.7902 27.5 17.5467V13.88C27.5 11.6366 27.498 10.1115 27.4017 8.93275C27.3079 7.7845 27.1378 7.19731 26.9291 6.78769C26.4269 5.80208 25.6256 5.00076 24.64 4.49855C24.2304 4.28984 23.6432 4.1198 22.4949 4.02599C21.3161 3.92968 19.7911 3.92764 17.5477 3.92764Z" fill="url(#paint2_linear_62_15)"/>
<defs>
<linearGradient id="paint0_linear_62_15" x1="8.04894" y1="8.48314" x2="25.7044" y2="20.9111" gradientUnits="userSpaceOnUse">
<stop offset="0.53" stop-color="#00BBFF"/>
<stop offset="0.75" stop-color="white"/>
</linearGradient>
<linearGradient id="paint1_linear_62_15" x1="22.2937" y1="6.65116" x2="25.2363" y2="8.72248" gradientUnits="userSpaceOnUse">
<stop offset="0.53" stop-color="#00BBFF"/>
<stop offset="0.75" stop-color="white"/>
</linearGradient>
<linearGradient id="paint2_linear_62_15" x1="1.66159" y1="2.45575" x2="34.03" y2="25.2403" gradientUnits="userSpaceOnUse">
<stop offset="0.53" stop-color="#00BBFF"/>
<stop offset="0.75" stop-color="white"/>
</linearGradient>
</defs>
</svg>
