<svg width="32" height="32" viewBox="0 0 32 32" fill="none" xmlns="http://www.w3.org/2000/svg">
<g clip-path="url(#clip0_62_9)">
<path fill-rule="evenodd" clip-rule="evenodd" d="M7.15154 30.7059V10.4759H0.428223V30.7059L7.15154 30.7059ZM3.79059 7.71489C6.13441 7.71489 7.59443 6.16016 7.59443 4.2189C7.55011 2.23448 6.13441 0.723633 3.83454 0.723633C1.5343 0.723694 0.0307617 2.23454 0.0307617 4.21896C0.0307617 6.16022 1.48998 7.71496 3.74633 7.71496L3.79059 7.71489ZM10.8726 30.7059C10.8726 30.7059 10.9608 12.3741 10.8726 10.476H17.597V13.4098H17.5524C18.4366 12.0293 20.0295 10.001 23.6564 10.001C28.0813 10.001 31.3979 12.8923 31.3979 19.1062V30.706H24.6746V19.8835C24.6746 17.1642 23.7018 15.3085 21.268 15.3085C19.4109 15.3085 18.3041 16.5595 17.8181 17.7688C17.6403 18.1992 17.597 18.8038 17.597 19.4084V30.7059H10.8726Z" fill="url(#paint0_linear_62_9)"/>
</g>
<defs>
<linearGradient id="paint0_linear_62_9" x1="0.414031" y1="1.91749" x2="34.586" y2="27.0825" gradientUnits="userSpaceOnUse">
<stop offset="0.53" stop-color="#00BBFF"/>
<stop offset="0.75" stop-color="white"/>
</linearGradient>
<clipPath id="clip0_62_9">
<rect width="31.4286" height="31.4286" fill="white"/>
</clipPath>
</defs>
</svg>
