<svg width="32" height="32" viewBox="0 0 32 32" fill="none" xmlns="http://www.w3.org/2000/svg">
<g clip-path="url(#clip0_62_12)">
<path d="M7.87527 10.4845C8.02491 9.30104 9.56295 7.69261 10.7836 7.87108L10.7816 7.86913C11.9695 8.09487 12.9099 10.1394 13.4401 11.0587C13.8158 11.7258 13.5718 12.4016 13.2214 12.6868C12.7487 13.0678 12.0094 13.5935 12.1645 14.1214C12.4403 15.0598 15.7141 18.3336 17.3243 19.2643C17.9337 19.6166 18.3757 18.6874 18.7531 18.2114C19.0273 17.8453 19.7037 17.6265 20.3692 17.9879C21.3631 18.5667 22.2994 19.2394 23.1653 19.9967C23.5977 20.3581 23.6992 20.8923 23.3995 21.4568C22.8718 22.4511 21.3454 23.7624 20.2374 23.4959C18.3022 23.0306 10.476 19.9967 7.96213 11.2072C7.82075 10.7914 7.85635 10.6342 7.87527 10.4845Z" fill="#F3F3F3"/>
<path fill-rule="evenodd" clip-rule="evenodd" d="M15.7143 30.1191C14.112 30.1191 13.2255 29.9472 11.7858 29.4643L9.02847 30.843C7.28705 31.7137 5.23814 30.4474 5.23814 28.5004V25.5358C2.41815 22.9062 1.30957 19.8743 1.30957 15.7143C1.30957 7.75881 7.75881 1.30957 15.7143 1.30957C23.6698 1.30957 30.1191 7.75881 30.1191 15.7143C30.1191 23.6698 23.6698 30.1191 15.7143 30.1191ZM7.85719 24.3969L7.02427 23.6202C4.83333 21.5773 3.92862 19.2934 3.92862 15.7143C3.92862 9.20527 9.20527 3.92862 15.7143 3.92862C22.2235 3.92862 27.5 9.20527 27.5 15.7143C27.5 22.2235 22.2235 27.5 15.7143 27.5C14.4235 27.5 13.8181 27.3835 12.6186 26.9812L11.5873 26.6354L7.85719 28.5004V24.3969Z" fill="url(#paint0_linear_62_12)"/>
</g>
<defs>
<linearGradient id="paint0_linear_62_12" x1="1.66159" y1="2.49669" x2="34.7559" y2="25.0079" gradientUnits="userSpaceOnUse">
<stop offset="0.53" stop-color="#00BBFF"/>
<stop offset="0.75" stop-color="white"/>
</linearGradient>
<clipPath id="clip0_62_12">
<rect width="31.4286" height="31.4286" fill="white"/>
</clipPath>
</defs>
</svg>
